<?xml version="1.0" encoding="UTF-8" standalone="no"?>
<!-- Created with Inkscape (http://www.inkscape.org/) -->

<svg
   width="1024"
   height="1024"
   viewBox="0 0 270.93334 270.93334"
   version="1.1"
   id="svg1"
   xml:space="preserve"
   inkscape:version="1.4.4 (dcaf3e7, 2026-05-05)"
   sodipodi:docname="icon.svg"
   inkscape:export-filename="icon_sm.png"
   inkscape:export-xdpi="48.000004"
   inkscape:export-ydpi="48.000004"
   xmlns:inkscape="http://www.inkscape.org/namespaces/inkscape"
   xmlns:sodipodi="http://sodipodi.sourceforge.net/DTD/sodipodi-0.dtd"
   xmlns="http://www.w3.org/2000/svg"
   xmlns:svg="http://www.w3.org/2000/svg"><sodipodi:namedview
     id="namedview1"
     pagecolor="#ffffff"
     bordercolor="#000000"
     borderopacity="0.25"
     inkscape:showpageshadow="2"
     inkscape:pageopacity="0.0"
     inkscape:pagecheckerboard="0"
     inkscape:deskcolor="#d1d1d1"
     inkscape:document-units="px"
     inkscape:zoom="0.12059761"
     inkscape:cx="16.584077"
     inkscape:cy="-273.63726"
     inkscape:window-width="1728"
     inkscape:window-height="995"
     inkscape:window-x="0"
     inkscape:window-y="33"
     inkscape:window-maximized="0"
     inkscape:current-layer="layer1"><sodipodi:guide
       position="-0.37025384,512.15833"
       orientation="0,3870.2362"
       id="guide1"
       inkscape:locked="false" /><sodipodi:guide
       position="1023.6297,512.15833"
       orientation="3870.2362,0"
       id="guide2"
       inkscape:locked="false" /><sodipodi:guide
       position="1023.6297,-511.84174"
       orientation="0,-3870.2362"
       id="guide3"
       inkscape:locked="false" /><sodipodi:guide
       position="-0.37025384,-511.84174"
       orientation="-3870.2362,0"
       id="guide4"
       inkscape:locked="false" /></sodipodi:namedview><defs
     id="defs1"><filter
       style="color-interpolation-filters:sRGB"
       inkscape:label="Colorize"
       id="filter2"
       x="0"
       y="0"
       width="1"
       height="1"><feComposite
         in2="SourceGraphic"
         operator="arithmetic"
         k1="0"
         k2="1"
         result="composite1"
         id="feComposite1"
         k3="0"
         k4="0" /><feColorMatrix
         in="composite1"
         values="1"
         type="saturate"
         result="colormatrix1"
         id="feColorMatrix1" /><feFlood
         flood-opacity="1"
         flood-color="rgb(0,0,0)"
         result="flood1"
         id="feFlood1" /><feBlend
         in="flood1"
         in2="colormatrix1"
         mode="multiply"
         result="blend1"
         id="feBlend1" /><feBlend
         in2="blend1"
         mode="screen"
         result="blend2"
         id="feBlend2" /><feColorMatrix
         in="blend2"
         values="1"
         type="saturate"
         result="colormatrix2"
         id="feColorMatrix2" /><feComposite
         in="colormatrix2"
         in2="SourceGraphic"
         operator="in"
         result="fbSourceGraphic"
         id="feComposite2" /><feColorMatrix
         result="fbSourceGraphicAlpha"
         in="fbSourceGraphic"
         values="0 0 0 -1 0 0 0 0 -1 0 0 0 0 -1 0 0 0 0 1 0"
         id="feColorMatrix3" /><feComposite
         id="feComposite3"
         in2="fbSourceGraphic"
         operator="arithmetic"
         k1="0"
         k2="1"
         result="composite1"
         in="fbSourceGraphic"
         k3="0"
         k4="0" /><feColorMatrix
         id="feColorMatrix4"
         in="composite1"
         values="1"
         type="saturate"
         result="colormatrix1" /><feFlood
         id="feFlood4"
         flood-opacity="1"
         flood-color="rgb(0,0,0)"
         result="flood1" /><feBlend
         id="feBlend4"
         in="flood1"
         in2="colormatrix1"
         mode="multiply"
         result="blend1" /><feBlend
         id="feBlend5"
         in2="blend1"
         mode="screen"
         result="blend2" /><feColorMatrix
         id="feColorMatrix5"
         in="blend2"
         values="1"
         type="saturate"
         result="colormatrix2" /><feComposite
         id="feComposite5"
         in="colormatrix2"
         in2="fbSourceGraphic"
         operator="in"
         result="fbSourceGraphic" /><feColorMatrix
         result="fbSourceGraphicAlpha"
         in="fbSourceGraphic"
         values="0 0 0 -1 0 0 0 0 -1 0 0 0 0 -1 0 0 0 0 1 0"
         id="feColorMatrix6" /><feComposite
         id="feComposite6"
         in2="fbSourceGraphic"
         operator="arithmetic"
         k1="0"
         k2="1"
         result="composite1"
         in="fbSourceGraphic"
         k3="0"
         k4="0" /><feColorMatrix
         id="feColorMatrix7"
         in="composite1"
         values="1"
         type="saturate"
         result="colormatrix1" /><feFlood
         id="feFlood7"
         flood-opacity="1"
         flood-color="rgb(0,0,0)"
         result="flood1" /><feBlend
         id="feBlend7"
         in="flood1"
         in2="colormatrix1"
         mode="multiply"
         result="blend1" /><feBlend
         id="feBlend8"
         in2="blend1"
         mode="screen"
         result="blend2" /><feColorMatrix
         id="feColorMatrix8"
         in="blend2"
         values="1"
         type="saturate"
         result="colormatrix2" /><feComposite
         id="feComposite8"
         in="colormatrix2"
         in2="fbSourceGraphic"
         operator="in"
         result="composite2" /></filter></defs><g
     id="g10"
     transform="matrix(6.602324,0,0,6.6642018,-455.34986,13.569002)"
     inkscape:export-filename="icon.svg"
     inkscape:export-xdpi="2.3814495"
     inkscape:export-ydpi="2.3814495"><g
       inkscape:groupmode="layer"
       id="layer2"
       inkscape:label="text"><path
         id="text8"
         style="font-size:42.3333px;stroke-width:0.246672"
         d="M 68.968116,-2.0361031 V 38.618927 h 9.2533 V 35.634542 H 72.064438 V 0.9483637 h 6.156978 v -2.9844668 z" /><path
         id="text9"
         style="font-size:42.3333px;stroke-width:0.246672"
         d="m 100.75086,-2.0361031 v 2.9844668 h 6.15705 V 35.634542 h -6.15705 v 2.984385 h 9.25331 V -2.0361031 Z" /></g><g
       inkscape:label="Layer 1"
       inkscape:groupmode="layer"
       id="layer1"
       style="display:inline"><g
         style="color:#1c2033;opacity:1;filter:url(#filter2)"
         id="g1"
         transform="matrix(0.05643644,0,0,0.05643644,75.941203,3.8434972)"><path
           fill="currentColor"
           d="M 106.75,215.06 1.2,370.95 c -3.08,5 0.1,11.5 5.93,12.14 l 208.26,22.07 z M 7.41,315.43 82.7,193.08 6.06,147.1 C 3.39,145.5 0,147.42 0,150.53 v 162.81 c 0,4.03 5.29,5.53 7.41,2.09 m 10.84,108.17 194.4,87.66 C 217.95,513.71 224,509.83 224,504 V 438.33 L 20.45,416.03 c -4.45,-0.5 -6.23,5.59 -2.2,7.57 M 99.47,165.82 179.4,22.88 C 183.74,15.82 175.81,7.63 168.62,11.74 L 17.81,110.35 c -2.47,1.62 -2.39,5.26 0.13,6.78 z M 240,176 H 349.21 L 253.63,7.62 C 250.5,2.54 245.25,0 240,0 234.75,0 229.5,2.54 226.37,7.62 L 130.79,176 Z m 233.94,-28.9 -76.64,45.99 75.29,122.35 c 2.11,3.44 7.41,1.94 7.41,-2.1 V 150.53 c 0,-3.11 -3.39,-5.03 -6.06,-3.43 m -93.41,18.72 81.53,-48.7 c 2.53,-1.52 2.6,-5.16 0.13,-6.78 L 311.38,11.74 C 304.19,7.63 296.26,15.82 300.6,22.88 Z M 459.55,416.03 256,438.32 v 65.67 c 0,5.84 6.05,9.71 11.35,7.26 l 194.4,-87.66 c 4.03,-1.97 2.25,-8.06 -2.2,-7.56 m -86.3,-200.97 -108.63,190.1 208.26,-22.07 c 5.83,-0.65 9.01,-7.14 5.93,-12.14 z M 240,208 H 139.57 L 240,383.75 340.43,208 Z"
           id="path1" /></g></g></g></svg>
